# xmcd
#
# Track frame offsets: 
#        150
#        11241
#        28999
#        41410
#        55296
#        69979
#        89794
#
# Disc length: 1331 seconds
#
# Revision: 0
# Processed by: cddbd v1.5.2PL0 Copyright (c) Steve Scherf et al.
# Submitted via: ExactAudioCopyFreeDBPlugin 1.0
#
DISCID=5f053107
DTITLE=Christian Serpas and Ghost Town - Revved Up And Ready To Go
DYEAR=2014
DGENRE=
TTITLE0=Get Up, Get In
TTITLE1=Revved Up and Ready To Go
TTITLE2=Bigger and Better
TTITLE3=The Only Thing I Haven't Got Is You
TTITLE4=Ain't She A Sight To See
TTITLE5=She's The One
TTITLE6=You Are My Sunshine
EXTD=
EXTT0=
EXTT1=
EXTT2=
EXTT3=
EXTT4=
EXTT5=
EXTT6=
PLAYORDER=
